<?xml version="1.0" standalone="no"?>
<!DOCTYPE svg PUBLIC "-//W3C//DTD SVG 20010904//EN"
 "http://www.w3.org/TR/2001/REC-SVG-20010904/DTD/svg10.dtd">
<svg version="1.0" xmlns="http://www.w3.org/2000/svg"
 width="512.000000pt" height="512.000000pt" viewBox="0 0 512.000000 512.000000"
 preserveAspectRatio="xMidYMid meet">

<g transform="translate(0.000000,512.000000) scale(0.100000,-0.100000)"
fill="#000000" stroke="none">
<path d="M2670 5111 c-91 -29 -148 -88 -193 -195 -19 -44 -191 -479 -383 -965
-266 -674 -354 -886 -369 -892 -11 -5 -360 -74 -775 -155 -473 -91 -771 -153
-797 -165 -84 -41 -153 -150 -153 -244 0 -43 58 -327 69 -338 5 -5 25 -12 45
-17 31 -7 41 -5 63 14 32 28 32 42 -2 215 -25 130 -25 134 -8 169 36 71 -109
39 1939 434 88 17 168 29 177 25 29 -11 54 -80 81 -222 15 -77 29 -149 32
-160 4 -14 -4 -9 -24 15 -72 86 -211 122 -323 85 -76 -26 -161 -112 -183 -185
-20 -68 -20 -122 0 -190 21 -71 107 -159 178 -183 152 -52 315 18 373 160 10
24 20 43 23 43 3 0 54 -253 114 -562 60 -310 111 -572 114 -583 3 -15 -7 -9
-39 22 -123 118 -301 119 -418 2 -61 -61 -85 -120 -84 -209 0 -91 17 -134 79
-200 61 -65 129 -94 219 -94 119 1 211 62 265 175 l27 57 31 -168 c23 -124 28
-176 22 -204 -4 -21 -11 -40 -13 -43 -10 -9 -2001 -394 -2047 -395 -58 -2 -95
22 -114 75 -8 23 -83 395 -167 827 -142 738 -152 786 -176 808 -20 18 -33 22
-56 18 -41 -8 -67 -33 -67 -64 0 -58 312 -1629 331 -1669 40 -84 150 -153 243
-153 16 0 158 25 315 55 157 31 423 83 591 115 168 33 550 107 850 165 335 65
561 114 587 126 83 40 153 150 153 240 0 15 -57 318 -126 674 -69 356 -124
650 -122 654 2 4 224 -81 493 -188 l490 -196 80 0 c58 0 90 5 115 19 43 22
107 82 125 116 7 14 144 357 304 762 312 791 304 764 249 802 -12 9 -30 16
-40 16 -47 0 -64 -36 -352 -767 -157 -397 -290 -732 -296 -743 -16 -29 -69
-60 -104 -60 -20 0 -1082 408 -1102 424 -1 1 -36 179 -78 396 -45 232 -85 412
-97 437 -41 84 -150 153 -243 153 -17 0 -154 -24 -304 -53 -149 -30 -272 -52
-272 -51 0 17 717 1814 729 1828 21 24 65 46 92 46 24 0 117 -36 1339 -519
628 -249 840 -337 857 -356 43 -49 40 -78 -27 -253 -70 -182 -71 -202 -14
-229 63 -31 79 -13 153 172 72 180 81 226 56 310 -13 45 -28 69 -68 109 -52
51 -54 52 -677 298 -344 136 -832 329 -1085 429 -382 151 -470 182 -520 185
-33 2 -71 0 -85 -5z m-460 -2549 c74 -37 102 -131 60 -199 -60 -99 -199 -93
-250 12 -25 52 -25 68 0 120 36 74 118 103 190 67z m287 -1412 c87 -52 83
-198 -6 -245 -98 -50 -211 16 -211 123 0 85 56 142 140 142 27 0 58 -8 77 -20z"/>
<path d="M2943 4589 c-182 -34 -288 -220 -223 -391 24 -66 85 -134 145 -163
59 -29 204 -28 261 2 63 34 131 115 150 181 59 203 -126 409 -333 371z m147
-187 c95 -95 34 -242 -101 -242 -117 0 -183 147 -103 232 37 38 57 47 118 47
43 1 52 -3 86 -37z"/>
<path d="M3255 3642 c-186 -90 -228 -327 -82 -470 140 -137 364 -105 465 66
24 42 27 57 27 137 0 74 -4 97 -23 132 -57 107 -133 156 -252 161 -66 3 -82 0
-135 -26z m193 -138 c42 -24 65 -63 70 -114 8 -90 -49 -150 -144 -150 -57 0
-94 22 -119 70 -21 40 -19 109 4 146 35 58 132 82 189 48z"/>
<path d="M3662 2733 c-66 -23 -147 -103 -172 -171 -55 -144 15 -311 154 -373
143 -62 310 -2 381 136 26 50 30 69 29 134 0 93 -30 158 -99 219 -78 69 -193
91 -293 55z m161 -144 c91 -47 112 -149 46 -224 -85 -97 -234 -46 -246 84 -4
36 0 53 19 81 40 60 126 87 181 59z"/>
<path d="M705 2457 c-139 -47 -219 -153 -220 -292 0 -114 59 -205 170 -263 41
-21 63 -26 125 -25 91 0 134 17 200 79 123 115 126 305 7 422 -76 74 -195 107
-282 79z m149 -166 c89 -59 88 -198 -3 -246 -38 -19 -104 -19 -142 0 -89 47
-93 193 -6 245 42 26 113 26 151 1z"/>
<path d="M1535 1891 c-137 -36 -230 -157 -229 -296 1 -86 18 -129 79 -194 62
-67 129 -95 220 -95 116 1 206 59 262 167 53 104 29 250 -57 335 -67 68 -191
105 -275 83z m139 -170 c89 -59 88 -198 -3 -246 -38 -19 -104 -19 -142 0 -89
47 -93 193 -6 245 42 26 113 26 151 1z"/>
<path d="M957 1046 c-100 -36 -167 -112 -193 -219 -15 -58 -15 -69 0 -126 37
-143 147 -231 292 -231 107 0 209 64 262 164 22 43 27 64 27 131 0 67 -5 88
-27 131 -34 64 -105 128 -165 148 -56 19 -144 20 -196 2z m172 -163 c44 -34
64 -69 64 -116 0 -147 -187 -199 -263 -74 -77 125 82 276 199 190z"/>
</g>
</svg>
